<?xml version="1.0" standalone="no"?><!DOCTYPE svg PUBLIC "-//W3C//DTD SVG 1.1//EN" "http://www.w3.org/Graphics/SVG/1.1/DTD/svg11.dtd"><svg t="1719300154463" class="icon" viewBox="0 0 1024 1024" version="1.1" xmlns="http://www.w3.org/2000/svg" p-id="27447" xmlns:xlink="http://www.w3.org/1999/xlink" width="200" height="200"><path d="M873.952 107.563H243.889c-46.574 0-84.465 37.89-84.465 84.465v223.997h-46.749c-25.966 0-47.091 21.125-47.091 47.091v406.231c0 25.966 21.125 47.091 47.091 47.091h503.726c25.967 0 47.091-21.125 47.091-47.091v-96.846h210.459c46.574 0 84.465-37.891 84.465-84.465V192.027c0-46.574-37.891-84.464-84.464-84.464z m-2.234 87.525v20.687c0 6.6-5.4 12-11.999 12h-20.687c-6.6 0-11.999-5.4-11.999-12v-20.687c0-6.598 5.399-11.998 11.999-11.998h20.687c6.599 0 11.999 5.4 11.999 11.998z m-72.614 0v20.687c0 6.6-5.4 12-11.999 12h-20.687c-6.6 0-11.999-5.4-11.999-12v-20.687c0-6.598 5.4-11.998 11.999-11.998h20.687c6.599 0 11.999 5.4 11.999 11.998z m-72.614 0v20.687c0 6.6-5.4 12-11.999 12h-20.687c-6.6 0-11.999-5.4-11.999-12v-20.687c0-6.598 5.4-11.998 11.999-11.998h20.687c6.6 0 11.999 5.4 11.999 11.998zM539.217 495.614c0 8.937-7.312 16.249-16.249 16.249-8.937 0-16.249-7.312-16.249-16.249 0-8.937 7.312-16.249 16.249-16.249 8.937 0 16.249 7.312 16.249 16.249z m-52.81 0c0 8.937-7.312 16.249-16.249 16.249-8.937 0-16.249-7.312-16.249-16.249 0-8.937 7.312-16.249 16.249-16.249 8.937 0 16.249 7.312 16.249 16.249z m89.371-16.249c8.937 0 16.249 7.312 16.249 16.249 0 8.937-7.312 16.249-16.249 16.249-8.937 0-16.249-7.312-16.249-16.249 0-8.937 7.312-16.249 16.249-16.249z m-448.51 375.388V544.361h474.54v310.392h-474.54z m746.684-143.938H663.494V500.356l-0.001-0.074v-37.167c0-25.966-21.125-47.091-47.091-47.091h-32.684a85.707 85.707 0 0 0-4.688-0.132H221.108V272.461h675.624v415.574c0 12.561-10.219 22.78-22.78 22.78z" p-id="27448" fill="#0a66c2"></path></svg>